<svg width="127" height="112" viewBox="0 0 127 112" fill="none" xmlns="http://www.w3.org/2000/svg">
    <defs>
        <linearGradient id="paint0_linear_2_10" x1="0.367017" y1="111" x2="7.36698" y2="-64"
            gradientUnits="userSpaceOnUse">
            <stop stop-color="#FF5C00" stop-opacity="0.3" />
            <stop offset="1" stop-color="#FFC700" stop-opacity="0.59" />
        </linearGradient>
        <linearGradient id="paint1_linear_2_10" x1="120.367" y1="87" x2="-75.633" y2="-93"
            gradientUnits="userSpaceOnUse">
            <stop stop-color="#FF5C00" stop-opacity="0.78" />
            <stop offset="1" stop-color="#FFC700" stop-opacity="0.35" />
        </linearGradient>
    </defs>
    <path
        d="M126.465 83.5V0H52.367C46.3669 4 -10.9684 39.9661 1.86701 48.5C15.0745 57.2813 45.367 46 55.867 53.5C82.3914 72.4461 86.3669 97 102.867 109C119.367 121 126.465 83.5 126.465 83.5Z"
        fill="url(#paint0_linear_2_10)" fill-opacity="0.8" />
    <path
        d="M126.367 83.5V0H19.8671C13.867 4 6.53168 27.4661 19.3671 36C32.5746 44.7813 60.5915 37 69.367 47C90.867 71.5 66.3669 92.5 82.867 104.5C99.3671 116.5 126.367 83.5 126.367 83.5Z"
        fill="url(#paint1_linear_2_10)" fill-opacity="0.8" />

</svg>
