<?xml version="1.0" encoding="iso-8859-1"?>
<!-- Generator: Adobe Illustrator 19.0.0, SVG Export Plug-In . SVG Version: 6.00 Build 0)  -->
<svg version="1.1" id="Layer_1" xmlns="http://www.w3.org/2000/svg" xmlns:xlink="http://www.w3.org/1999/xlink" x="0px" y="0px"
	 viewBox="0 0 512 412" style="enable-background:new 0 0 512 512;" xml:space="preserve">
<path style="fill:#F2F2F2;" d="M480.613,147.685c0-11.037-9.262-19.983-20.298-19.983H50.588c-11.196,0-20.272,9.076-20.272,20.272
	V339.53h450.297V147.685z"/>
<g>
	<circle style="fill:#666666;" cx="128.5" cy="338.001" r="46.294"/>
	<circle style="fill:#666666;" cx="377.299" cy="338.001" r="46.294"/>
</g>
<g>
	<circle style="fill:#F2F2F2;" cx="128.5" cy="338.001" r="14.814"/>
	<circle style="fill:#F2F2F2;" cx="377.299" cy="338.001" r="14.814"/>
	<path style="fill:#B5B5B5;" d="M23.427,339.53h25.741v-43.75H23.427c-7.305,0-13.227,5.922-13.227,13.227v17.297
		C10.199,333.608,16.121,339.53,23.427,339.53z"/>
	<path style="fill:#B5B5B5;" d="M488.573,339.53h-24.622v-43.75h24.622c7.305,0,13.227,5.922,13.227,13.227v17.297
		C501.801,333.608,495.879,339.53,488.573,339.53z"/>
</g>
<g>
	<rect x="64.388" y="160.831" style="fill:#2196F3;" width="79.901" height="60.644"/>
	<rect x="178.139" y="160.831" style="fill:#2196F3;" width="79.901" height="60.644"/>
	<rect x="291.697" y="160.831" style="fill:#2196F3;" width="79.901" height="60.644"/>
	<rect x="405.449" y="160.831" style="fill:#2196F3;" width="74.934" height="60.644"/>
</g>
<g>
	<path style="fill:#4D3D36;" d="M128.5,312.991c-13.792,0-25.014,11.22-25.014,25.013s11.221,25.014,25.014,25.014
		s25.014-11.221,25.014-25.014S142.292,312.991,128.5,312.991z M128.5,342.618c-2.545,0-4.615-2.07-4.615-4.615
		s2.07-4.614,4.615-4.614c2.545,0,4.615,2.07,4.615,4.614C133.115,340.548,131.044,342.618,128.5,342.618z"/>
	<path style="fill:#4D3D36;" d="M377.298,312.991c-13.792,0-25.014,11.22-25.014,25.013s11.221,25.014,25.014,25.014
		s25.013-11.221,25.013-25.014S391.09,312.991,377.298,312.991z M377.298,342.618c-2.545,0-4.615-2.07-4.615-4.615
		s2.07-4.614,4.615-4.614c2.545,0,4.614,2.07,4.614,4.614C381.913,340.548,379.843,342.618,377.298,342.618z"/>
	<path style="fill:#4D3D36;" d="M73.238,349.729c5.414,25.541,28.131,44.768,55.261,44.768s49.848-19.227,55.261-44.768h138.276
		c5.414,25.541,28.131,44.768,55.261,44.768s49.848-19.227,55.261-44.768h56.014c12.917,0,23.427-10.509,23.427-23.426v-17.297
		c0-12.162-9.317-22.186-21.188-23.316V147.685c0-16.643-13.681-30.183-30.498-30.183H50.588c-16.802,0-30.47,13.669-30.47,30.471
		v137.845C8.762,287.431,0,297.212,0,309.007v17.297c0,12.917,10.509,23.426,23.427,23.426L73.238,349.729L73.238,349.729z
		 M50.588,137.901h409.728c5.474,0,10.099,4.481,10.099,9.784v2.947h-64.962c-5.633,0-10.199,4.566-10.199,10.199v60.649
		c0,5.633,4.566,10.199,10.199,10.199h64.962v53.903h-6.461c-5.633,0-10.199,4.566-10.199,10.199v33.551h-20.629
		c-4.186-27.048-27.625-47.82-55.826-47.82s-51.642,20.773-55.827,47.82H184.326c-4.186-27.048-27.625-47.82-55.826-47.82
		s-51.642,20.773-55.826,47.82H59.365V295.78c0-5.633-4.566-10.199-10.199-10.199h-8.651v-16.678h372.552
		c5.633,0,10.199-4.566,10.199-10.199c0-5.633-4.566-10.199-10.199-10.199H40.515V147.974
		C40.515,142.419,45.034,137.901,50.588,137.901z M470.183,171.029v40.25h-54.532v-40.25H470.183z M23.427,329.331
		c-1.67,0-3.028-1.359-3.028-3.027v-17.297c0-1.67,1.359-3.028,3.028-3.028h15.541v23.352H23.427z M128.5,374.098
		c-19.903,0-36.095-16.192-36.095-36.095s16.191-36.095,36.095-36.095c19.904,0,36.095,16.191,36.095,36.095
		S148.402,374.098,128.5,374.098z M377.298,374.098c-19.903,0-36.095-16.192-36.095-36.095s16.192-36.095,36.095-36.095
		s36.095,16.191,36.095,36.095S397.201,374.098,377.298,374.098z M474.152,329.331v-23.352h14.422c1.67,0,3.028,1.359,3.028,3.028
		v17.297c0,1.67-1.359,3.027-3.028,3.027L474.152,329.331L474.152,329.331z"/>
	<path style="fill:#4D3D36;" d="M64.386,231.677h79.9c5.633,0,10.199-4.566,10.199-10.199V160.83
		c0-5.633-4.566-10.199-10.199-10.199h-79.9c-5.633,0-10.199,4.566-10.199,10.199v60.649
		C54.186,227.111,58.753,231.677,64.386,231.677z M74.585,171.029h59.501v40.25H74.585V171.029z"/>
	<path style="fill:#4D3D36;" d="M178.14,231.677h79.9c5.633,0,10.199-4.566,10.199-10.199V160.83
		c0-5.633-4.566-10.199-10.199-10.199h-79.9c-5.633,0-10.199,4.566-10.199,10.199v60.649
		C167.941,227.111,172.507,231.677,178.14,231.677z M188.34,171.029h59.501v40.25H188.34V171.029z"/>
	<path style="fill:#4D3D36;" d="M291.697,231.677h79.9c5.633,0,10.199-4.566,10.199-10.199V160.83
		c0-5.633-4.566-10.199-10.199-10.199h-79.9c-5.633,0-10.199,4.566-10.199,10.199v60.649
		C281.498,227.111,286.064,231.677,291.697,231.677z M301.896,171.029h59.501v40.25h-59.501V171.029z"/>
	<path style="fill:#4D3D36;" d="M444.781,268.903h4.036c5.633,0,10.199-4.566,10.199-10.199s-4.566-10.199-10.199-10.199h-4.036
		c-5.633,0-10.199,4.566-10.199,10.199C434.582,264.336,439.148,268.903,444.781,268.903z"/>
</g>
</svg>
